<?xml version="1.0" encoding="iso-8859-1"?>
<!-- Uploaded to: SVG Repo, www.svgrepo.com, Generator: SVG Repo Mixer Tools -->
<svg height="800px" width="800px" version="1.1" id="Layer_1" xmlns="http://www.w3.org/2000/svg" xmlns:xlink="http://www.w3.org/1999/xlink" 
	 viewBox="0 0 512.526 512.526" xml:space="preserve">
<g transform="translate(1 1)">
	<path style="fill:#FDCC00;" d="M19.086,278.303c0,0-21.333,13.653-4.267,35.84c0,0-36.693,42.667,51.2,52.053
		c0,0,27.307-23.893,39.253,7.68c0,0,54.613-7.68,91.307-23.893c0,0,29.867-11.093,39.253,0c10.24,11.093,70.827,43.52,82.773,7.68
		c0,0,17.92-5.973,23.893,11.947c0,0,34.133,15.36,46.933-11.947l11.947-4.267c0,0,29.867,23.893,42.667-7.68l11.947-7.68
		l8.533-0.853c0,0,58.027-24.747,29.867-75.093c0,0-11.947,21.333-19.627,27.307c0,0-70.827,80.213-267.093,11.947
		c0,0-39.253-16.213-126.293-5.12C82.233,296.223,60.046,297.93,19.086,278.303"/>
	<path style="fill:#FFE100;" d="M19.086,278.303c40.96,19.627,63.147,17.92,63.147,17.92c87.04-10.24,126.293,5.12,126.293,5.12
		c196.267,69.12,267.093-11.947,267.093-11.947c7.68-5.973,19.627-27.307,19.627-27.307v-4.267c0,0-1.707-19.627-77.653-19.627
		c0,0-59.733,4.267-67.413-23.893c0,0-10.24-5.12-11.947,4.267l-15.36-11.093c0,0-5.12-20.48-19.627-7.68l-11.947-7.68
		c0,0-2.56-14.507-16.213-7.68c0,0-11.093-4.267-16.213-11.947c0,0-2.56-11.093-11.947-4.267c0,0-11.093,1.707-23.893-15.36
		c-12.8-17.92-53.76-29.013-43.52,11.947c0,0-14.507,24.747-63.147,19.627c0,0-22.187-2.56-31.573-16.213
		c-8.533-13.653-49.493-17.92-46.08,3.413c2.56,21.333-4.267,23.893-4.267,23.893s-27.307,34.987-15.36,78.507V278.303z"/>
	<g>
		<path style="fill:#FFFFFF;" d="M40.419,314.143c-9.387-11.947-7.68-21.333-3.413-27.307c-5.12-2.56-11.093-5.12-17.92-7.68
			c0,0-21.333,13.653-4.267,35.84c0,0-36.693,42.667,51.2,52.053c0,0,1.707-1.707,4.267-3.413
			C9.699,349.983,40.419,314.143,40.419,314.143"/>
		<path style="fill:#FFFFFF;" d="M44.686,279.157v-4.267c-11.947-43.52,15.36-78.507,15.36-78.507s6.827-2.56,4.267-23.893
			c-0.853-6.827,1.707-10.24,6.827-12.8c-15.36-4.267-34.987-2.56-32.427,12.8c2.56,21.333-4.267,23.893-4.267,23.893
			S7.139,231.37,19.086,274.89v4.267c40.96,19.627,63.147,17.92,63.147,17.92c4.267-0.853,7.68-0.853,11.947-0.853
			C83.086,294.517,66.873,289.397,44.686,279.157"/>
	</g>
	<g>
		<path style="fill:#FFA800;" d="M496.099,262.09c0,0-10.24,18.773-17.92,26.453c0,32.427-17.92,48.64-17.92,48.64l-17.92,11.947
			l-11.947,7.68c-2.56,5.973-16.213-1.707-19.627,0.853c10.24,5.12,26.453,8.533,34.133-12.8l11.947-7.68l8.533-0.853
			C465.379,337.183,523.406,312.437,496.099,262.09"/>
		<path style="fill:#FFA800;" d="M392.846,238.197c75.947,0,77.653,19.627,77.653,19.627v4.267c0,0-11.947,21.333-19.627,27.307
			c0,0-31.573,35.84-110.08,39.253c97.28,4.267,134.827-39.253,134.827-39.253c7.68-5.973,19.627-27.307,19.627-27.307v-4.267
			c0,0-1.707-19.627-77.653-19.627H392.846z"/>
	</g>
	<path d="M293.859,382.41c-24.747,0-56.32-17.92-64-27.307c-0.853-0.853-4.267-1.707-8.533-1.707
		c-10.24,0-22.187,4.267-22.187,4.267c-36.693,17.067-90.453,23.893-93.013,24.747c-4.267,0.853-7.68-1.707-9.387-5.12
		c-4.267-11.093-9.387-11.093-11.093-11.093c-5.973,0-12.8,4.267-14.507,6.827c-1.707,1.707-4.267,2.56-5.973,1.707
		c-36.693-3.413-58.027-13.653-64-29.867c-5.12-11.947,0-23.04,3.413-29.867c-4.267-8.533-5.973-15.36-5.12-22.187
		c2.56-13.653,13.653-20.48,14.507-21.333c2.56-1.707,5.973-1.707,8.533-0.853c34.987,17.067,54.613,17.92,58.027,17.92
		c20.48-2.56,39.253-3.413,57.173-3.413c48.64,0,72.533,9.387,73.387,9.387c51.2,17.92,98.987,27.307,140.8,27.307
		c83.627,0,116.053-36.693,116.907-36.693c0-0.853,0.853-0.853,1.707-0.853c4.267-3.413,12.8-16.213,17.067-24.747
		c1.707-2.56,4.267-4.267,7.68-4.267l0,0c3.413,0,5.973,1.707,7.68,4.267c8.533,16.213,11.093,32.427,5.973,46.933
		c-9.387,26.453-38.4,40.107-40.107,40.107c-0.853,0-1.707,0.853-2.56,0.853h-5.973l-7.68,5.12
		c-7.68,16.213-20.48,18.773-27.307,18.773c-10.24,0-18.773-5.12-23.893-7.68l-4.267,1.707c-6.827,11.093-17.92,17.92-32.427,17.92
		c-12.8,0-23.893-5.12-23.893-5.12c-2.56-0.853-3.413-2.56-4.267-5.12c-1.707-5.12-5.12-6.827-9.387-6.827
		C318.606,375.583,308.366,382.41,293.859,382.41z M221.326,336.33c9.387,0,16.213,2.56,21.333,7.68
		c4.267,5.12,31.573,21.333,52.053,21.333c11.947,0,15.36-5.973,17.067-10.24c0.853-2.56,2.56-4.267,5.12-5.12
		c0.853,0,4.267-1.707,9.387-1.707c10.24,0,18.773,5.12,23.893,14.507c3.413,0.853,8.533,2.56,14.507,2.56
		c9.387,0,15.36-3.413,18.773-11.093c0.853-1.707,2.56-3.413,5.12-4.267l11.947-4.267c2.56-0.853,5.973,0,7.68,1.707
		c2.56,1.707,10.24,6.827,17.067,6.827c2.56,0,7.68,0,12.8-11.093c0.853-1.707,1.707-2.56,3.413-4.267l11.947-7.68
		c0.853-0.853,2.56-1.707,4.267-1.707h6.827c5.12-2.56,23.893-12.8,29.013-29.867c1.707-5.973,2.56-11.093,0.853-17.92
		c-3.413,5.973-8.533,11.093-11.947,14.507c-5.12,5.973-42.667,41.813-128.853,41.813c-43.52,0-93.013-9.387-146.773-28.16
		c-0.853,0-22.187-8.533-67.413-8.533c-17.067,0-35.84,0.853-55.467,3.413c0,0-0.853,0-2.56,0c-5.973,0-26.453-0.853-60.587-17.067
		c-1.707,1.707-3.413,4.267-3.413,6.827c-0.853,4.267,0.853,8.533,5.12,12.8c2.56,3.413,2.56,7.68,0,11.093
		c0,0-8.533,10.24-5.12,17.92c2.56,5.12,11.093,15.36,46.933,18.773c4.267-3.413,12.8-8.533,23.04-8.533
		c5.973,0,17.067,2.56,23.893,15.36c15.36-2.56,54.613-9.387,81.92-22.187C194.019,341.45,207.673,336.33,221.326,336.33z"/>
	<path d="M351.886,338.037c-43.52,0-93.013-9.387-146.773-28.16c-0.853,0-22.187-8.533-67.413-8.533
		c-17.067,0-35.84,0.853-55.467,3.413c-0.853,0-0.853,0-1.707,0l0,0c-5.973,0-29.013-1.707-65.707-18.773
		c-2.56-1.707-5.12-4.267-5.12-7.68v-2.56c-11.947-46.933,16.213-83.627,17.92-85.333c0.853-0.853,0.853-1.707,1.707-1.707
		c0.853-0.853,1.707-5.12,0-15.36c-0.853-8.533,2.56-13.653,5.12-17.067c5.12-5.12,12.8-8.533,22.187-8.533
		c11.947,0.853,29.013,5.12,35.84,14.507c5.973,7.68,20.48,11.947,25.6,12.8c3.413,0,7.68,0.853,11.093,0.853
		c25.6,0,37.547-9.387,41.813-13.653c-1.707-11.947,0-20.48,4.267-26.453c4.267-5.12,11.093-8.533,18.773-8.533
		c12.8,0,29.013,8.533,36.693,19.627c6.827,9.387,11.947,11.093,14.507,11.947c2.56-1.707,5.12-2.56,7.68-2.56
		c6.827,0,11.947,5.12,14.507,11.093c1.707,2.56,5.973,5.12,8.533,6.827c1.707-0.853,4.267-0.853,5.973-0.853
		c8.533,0,14.507,5.973,17.067,12.8l4.267,3.413c2.56-1.707,5.12-2.56,8.533-2.56c10.24,0,15.36,8.533,17.92,15.36l6.827,5.12
		c2.56-0.853,5.12-1.707,7.68-1.707c4.267,0,8.533,1.707,9.387,2.56c2.56,0.853,4.267,3.413,4.267,5.973
		c3.413,12.8,28.16,17.92,50.347,17.92c4.267,0,7.68,0,7.68,0l0,0c75.947,0,86.187,19.627,86.187,27.307v4.267
		c0,1.707,0,2.56-0.853,4.267c-1.707,3.413-12.8,23.04-21.333,29.867C475.619,302.197,438.073,338.037,351.886,338.037z
		 M137.699,284.277c48.64,0,72.533,9.387,73.387,9.387c51.2,17.92,98.987,27.307,140.8,27.307
		c82.773,0,116.053-36.693,116.907-36.693l0.853-0.853c4.267-3.413,11.947-14.507,16.213-23.04l0,0
		c-1.707-2.56-13.653-12.8-69.12-12.8c0,0-3.413,0-8.533,0c-19.627,0-52.907-3.413-64-23.04c-0.853,0.853-1.707,1.707-3.413,2.56
		c-2.56,0.853-5.973,0.853-8.533-0.853l-15.36-11.947c-0.853-1.707-1.707-3.413-2.56-5.12c-0.853-1.707-2.56-5.12-3.413-5.12
		c0,0-0.853,0-2.56,1.707c-2.56,2.56-6.827,2.56-10.24,0.853l-11.947-7.68c-1.707-0.853-3.413-3.413-3.413-5.12
		c0-0.853-0.853-2.56-1.707-2.56c0,0-0.853,0-2.56,0.853c-2.56,0.853-4.267,0.853-6.827,0c-1.707-0.853-13.653-5.973-19.627-15.36
		c0,0,0-0.853-0.853-0.853c-0.853,0.853-1.707,0.853-2.56,0.853c0,0-0.853,0-2.56,0c-5.12,0-17.067-1.707-29.867-19.627
		c-4.267-6.827-14.507-12.8-22.187-12.8c-2.56,0-4.267,0.853-5.12,1.707c-0.853,0.853-2.56,5.12,0,15.36
		c0.853,2.56,0,4.267-0.853,5.973c-0.853,0.853-14.507,24.747-58.88,24.747c-4.267,0-8.533,0-12.8-0.853
		c-2.56,0-26.453-4.267-37.547-18.773c-2.56-3.413-11.947-6.827-22.187-6.827c-5.12,0-8.533,1.707-9.387,2.56
		c0,0-0.853,0.853,0,2.56c2.56,19.627-2.56,28.16-6.827,30.72c-4.267,6.827-23.04,35.84-13.653,70.827c0,0,0,0,0,0.853
		c31.573,14.507,50.347,15.36,53.76,15.36C101.006,285.983,119.779,284.277,137.699,284.277z"/>
	<path d="M223.033,208.33c-2.56,0-4.267-0.853-5.973-2.56c-3.413-3.413-3.413-8.533,0-11.947l33.28-33.28
		c3.413-3.413,8.533-3.413,11.947,0c3.413,3.413,3.413,8.533,0,11.947l-33.28,33.28C228.153,207.477,225.593,208.33,223.033,208.33z
		"/>
	<path d="M256.313,227.103c-2.56,0-4.267-0.853-5.973-2.56c-3.413-3.413-3.413-8.533,0-11.947l32.427-32.427
		c3.413-3.413,8.533-3.413,11.947,0c3.413,3.413,3.413,8.533,0,11.947l-32.427,32.427
		C260.579,226.25,258.019,227.103,256.313,227.103z"/>
	<path d="M287.033,239.05c-2.56,0-4.267-0.853-5.973-2.56c-3.413-3.413-3.413-8.533,0-11.947l31.573-31.573
		c3.413-3.413,8.533-3.413,11.947,0c3.413,3.413,3.413,8.533,0,11.947l-31.573,31.573
		C291.299,238.197,288.739,239.05,287.033,239.05z"/>
</g>
</svg>